# xmcd
#
# Track frame offsets:
#	150
#	17049
#	33805
#	50639
#	68462
#	86487
#	103511
#	121301
#	140678
#	156983
#	176039
#
# Disc length: 2579 seconds
#
# Revision: 1
# Processed by: cddbd v1.5.2PL0 Copyright (c) Steve Scherf et al.
# Submitted via: audiograbber 1.83.01
#
DISCID=8c0a110b
DTITLE=Carrie Rodriguez - She Ain't Me
DYEAR=2008
DGENRE=Country
TTITLE0=Infinite Night
TTITLE1=She Ain't Me
TTITLE2=Rag Doll
TTITLE3=Absence
TTITLE4=El Salvador
TTITLE5=Mask Of Moses
TTITLE6=The Big Mistake
TTITLE7=Grace
TTITLE8=Let Me In
TTITLE9=El Dorado
TTITLE10=Can't Cry Enough
EXTD=
EXTT0=
EXTT1=
EXTT2=
EXTT3=
EXTT4=
EXTT5=
EXTT6=
EXTT7=
EXTT8=
EXTT9=
EXTT10=
PLAYORDER=
